# xmcd
#
# Track frame offsets:
#	150
#	13843
#	30035
#	44694
#	56116
#	77124
#	99059
#	113229
#	126692
#	145030
#	156507
#	176671
#	194781
#	213117
#
# Disc length: 3026 seconds
#
# Revision: 0
# Processed by: cddbd v1.5.2PL0 Copyright (c) Steve Scherf et al.
# Submitted via: audiograbber 1.83.01
#
DISCID=c60bd00e
DTITLE=Joe Berry - The Definition Of Real Country Music
DYEAR=2008
DGENRE=Country
TTITLE0=Living On The Edge
TTITLE1=I'm Getting Good At Missing You
TTITLE2=Can't Get There Fast Enough
TTITLE3=Love Is Like A Train
TTITLE4=God Bless America Again
TTITLE5=The Dark Side Of The Moon
TTITLE6=I Must Be Talking To Myself
TTITLE7=Your Memory Keeps On Fanning The Flame
TTITLE8=Don't Wake Me
TTITLE9=Like A Bad Penny
TTITLE10=Way Ahead Of You
TTITLE11=You Don't Love Me like You Used To
TTITLE12=All My Time Just Loving You
TTITLE13=Just By Chance
EXTD=An all original Traditional Country At it's best by JRCA Nashville Recordi
EXTD=ng Artist Joe Berry
EXTT0=
EXTT1=
EXTT2=
EXTT3=
EXTT4=
EXTT5=
EXTT6=
EXTT7=
EXTT8=
EXTT9=
EXTT10=
EXTT11=
EXTT12=
EXTT13=
PLAYORDER=
